<svg width="420" height="297" viewBox="0 0 420 297" fill="none" xmlns="http://www.w3.org/2000/svg">
<g clip-path="url(#clip0)">
<path d="M230.564 206.217L228.552 207.142L227.023 204.023M231.399 208.035L228.516 209.359L221.467 212.884L217.536 214.692M216.7 212.875L219.739 211.477L218.31 208.06M220.156 207.288L221.544 210.609L226.749 208.007L225.228 204.903" stroke="black" stroke-width="0.5"/>
<path d="M221.38 186.881L218.334 188.365L212.528 191.055L209.809 188.535M222.256 188.679L220.103 189.727L221.932 193.448M220.137 194.33L218.297 190.586L213.65 192.74L215.214 196.307M213.383 197.11L211.829 193.568L209.067 194.802M208.251 192.976L210.55 191.949L208.449 190.001" stroke="black" stroke-width="0.5"/>
<path d="M225.992 68.9542L224.144 67.3662L222.163 69.8109M227.295 67.4374L222.038 62.9194M220.735 64.4363L222.626 66.0621L220.609 68.552" stroke="black" stroke-width="0.5"/>
<path d="M198.36 48.2497L200.364 46.9345L202.998 49.1628M197.263 46.5776L199.854 44.8772L202.201 43.0159M203.444 44.5828L202.018 45.7137L204.29 47.636" stroke="black" stroke-width="0.5"/>
<path d="M252.396 88.6824L248.513 90.5049L249.724 92.926M251.546 86.8719L247.618 88.7155L246.386 86.25M244.597 87.1445L247.935 93.8205" stroke="black" stroke-width="0.5"/>
<path d="M241.697 72.6406L236.682 75.1939L238.593 76.7659M240.789 70.8584L234.997 73.8075L232.413 71.6813M231.142 73.2257L237.322 78.3103" stroke="black" stroke-width="0.5"/>
<path d="M257.276 15.59L253.266 15.0032L250.977 17.8882M256.987 17.5689L254.116 17.149L252.544 19.131" stroke="black" stroke-width="0.5"/>
<path d="M329.966 86.9593L333.631 85.0049L332.689 83.2402L329.025 85.1946" stroke="black" stroke-width="0.5"/>
<path d="M298.388 68.4688L299.609 71.7667L301.485 71.072L300.263 67.7742" stroke="black" stroke-width="0.5"/>
<path d="M293.732 34.7312L297.311 37.3182L294.933 38.2408M294.904 33.1104L299.984 36.7829L302.865 38.9899M301.649 40.5777L299.225 38.7207L295.657 40.1053" stroke="black" stroke-width="0.5"/>
<path d="M399.984 129.723L406.244 126.674L402.031 121.489M399.108 127.925L403.103 125.979L400.479 122.75" stroke="black" stroke-width="0.5"/>
<path d="M282.502 78.5034L280.472 76.2317L277.291 77.0636M283.993 77.1707L281.703 74.6087L280.491 70.5847M278.576 71.1618L279.553 74.4047L276.785 75.1286" stroke="black" stroke-width="0.5"/>
<path d="M292.456 99.518L294.206 103.218L296.725 108.698L294.356 109.725M294.264 98.6626L295.581 101.447L298.692 99.907M299.58 101.699L296.427 103.26L300.483 112.099M298.665 112.931L297.559 110.516L295.152 111.56" stroke="black" stroke-width="0.5"/>
<path d="M268.47 123.575L265.556 124.961L266.641 127.127M267.611 121.769L264.641 123.182L263.784 121.56L262.199 118.389M260.41 119.284L261.525 121.514L258.813 122.67M259.598 124.51L262.44 123.298L263.315 124.954L264.853 128.023" stroke="black" stroke-width="0.5"/>
<path d="M276.238 141.626L274.035 142.708L272.824 140.188L275.395 139.027M277.119 143.422L274.882 144.52L275.893 146.745M274.073 147.573L272.664 144.474L270.575 140.126L269.049 136.904M270.857 136.048L271.962 138.383L274.572 137.204" stroke="black" stroke-width="0.5"/>
<path d="M283.778 157.127L281.162 158.321L280.268 156.323M284.609 158.946L282.001 160.137L283.1 162.444M281.294 163.304L279.753 160.068L278.443 157.139" stroke="black" stroke-width="0.5"/>
<path d="M294.773 179.003L290.781 180.897L287.863 182.279M287.007 180.472L289.026 179.515L287.655 176.577M289.467 175.732L290.833 178.659L293.916 177.196" stroke="black" stroke-width="0.5"/>
<path d="M274.332 186.304L271.993 187.396L270.661 184.892M275.178 188.116L271.971 189.613L268.701 191.106M267.87 189.287L270.174 188.235L268.895 185.831" stroke="black" stroke-width="0.5"/>
<path d="M264.065 171.557L262.577 168.509L261.302 165.747M262.268 172.434L261.218 170.284L258.708 171.539M257.813 169.75L260.359 168.477L259.486 166.585" stroke="black" stroke-width="0.5"/>
<path d="M255.684 153.587L254.341 150.69L253.069 147.65M253.87 154.428L252.945 152.432L250.446 153.63M249.581 151.826L252.137 150.602L251.224 148.422" stroke="black" stroke-width="0.5"/>
<path d="M251.677 125.648L249.26 126.699L248.056 124.395M252.474 127.482L249.333 128.847L246.313 131.345L247.526 134.289M245.676 135.051L244.576 132.378L242.815 133.165M241.998 131.34L244.575 130.187L247.544 127.732L246.284 125.322" stroke="black" stroke-width="0.5"/>
<path d="M245.3 123.425L244.354 121.721L241.451 123.254M247.048 122.453L245.626 119.894L244.274 117.474M242.528 118.45L243.38 119.974L240.517 121.486" stroke="black" stroke-width="0.5"/>
<path d="M237.23 125.401L234.537 126.722L235.817 128.46M236.349 123.605L233.155 125.172L232.518 124.654L233.744 123.964L235.445 121.104M233.726 120.082L232.298 122.483L230.863 123.29L229.047 121.75M227.753 123.275L230.107 125.272L232.292 127.047L234.207 129.646" stroke="black" stroke-width="0.5"/>
<path d="M227.629 100.248L224.836 98.5828L223.812 100.301L226.605 101.966" stroke="black" stroke-width="0.5"/>
<path d="M214.236 83.0182L212.683 81.7193L211.3 83.3274M215.519 81.4843L214.001 80.2143L215.624 78.3927M214.131 77.0623L212.451 78.9476L210.647 77.5106M209.401 79.0752L211.133 80.4546L209.784 82.0233" stroke="black" stroke-width="0.5"/>
<path d="M196.348 71.28L197.784 69.6809L199.354 70.9625M194.86 69.9438L196.426 68.2002L195.091 66.1076M196.777 65.032L198.434 67.6298L200.619 69.4131" stroke="black" stroke-width="0.5"/>
<path d="M190.175 51.4043L187.75 53.0479L185.405 54.5488M191.297 53.06L189.678 54.1572L191.255 56.5503M189.585 57.6509L188.008 55.2573L186.483 56.2333" stroke="black" stroke-width="0.5"/>
<path d="M196.821 100.816L198.516 98.9048L200.882 100.914M195.325 99.4887L197.653 96.8639L200.068 93.8562M201.627 95.1083L199.806 97.3766L202.177 99.3901" stroke="black" stroke-width="0.5"/>
<path d="M185.265 81.1978L183.824 82.8147L181.797 81.0996M186.758 82.5282L184.689 84.8505L182.96 87.0438M181.389 85.8055L182.539 84.3472L180.506 82.6264" stroke="black" stroke-width="0.5"/>
<path d="M171.008 63.7544L168.408 65.4879L165.674 67.1884M172.117 65.4185L170.282 66.6419L171.76 69.2148M170.025 70.2108L168.598 67.7249L166.73 68.8867" stroke="black" stroke-width="0.5"/>
<path d="M234.841 137.052L237.979 135.376L241.332 133.842M233.899 135.288L236.243 134.036L234.859 130.93M236.686 130.116L238.038 133.15L240.5 132.023" stroke="black" stroke-width="0.5"/>
<path d="M235.934 158.247L232.923 159.726L230.351 160.731L229.011 158.336M236.816 160.042L234.614 161.124L235.8 163.945M233.956 164.72L232.782 161.928L230.326 162.888L227.452 164.448L228.516 166.811M226.692 167.631L225.668 165.358L223.812 166.25M222.945 164.448L225.704 163.121L228.536 161.584L227.266 159.312" stroke="black" stroke-width="0.5"/>
<path d="M244.416 176.019L242.02 177.192L240.957 174.966M245.295 177.816L241.988 179.434L239.73 180.527M238.858 178.727L240.221 178.067L239.152 175.827" stroke="black" stroke-width="0.5"/>
<path d="M237.392 181.719L231.64 184.429M230.788 182.62L233.136 181.515L232.058 179.081M233.887 178.271L234.946 180.662L236.539 179.911" stroke="black" stroke-width="0.5"/>
<path d="M222.565 141.256L220.185 142.485L218.348 139.889M223.482 143.033L221.235 144.193L222.428 146.398M220.669 147.35L219.47 145.134L217.301 146.326M216.338 144.574L218.407 143.436L216.715 141.044" stroke="black" stroke-width="0.5"/>
<path d="M192.482 105.86L190.275 108.392L187.787 110.688L187.394 111.147L186.301 112.094L188.864 114.277M187.567 115.8L184.14 112.88L180.969 110.47M182.179 108.878L184.726 110.813L185.972 109.733L186.345 109.298L188.06 107.715L186.409 106.276M187.723 104.769L189.46 106.283L190.975 104.546" stroke="black" stroke-width="0.5"/>
<path d="M174.306 102.448L172.154 100.295L175.498 96.4811L177.561 98.2795M172.892 103.862L170.118 101.088L167.348 98.8859M168.592 97.3203L170.661 98.9645L174.627 94.4402L177.059 91.2217M178.655 92.4273L176.763 94.931L178.875 96.772" stroke="black" stroke-width="0.5"/>
<path d="M165.326 94.5637L163 92.8009L160.955 90.7566M164.119 96.1578L162.541 94.9629L161.051 96.9678M159.446 95.7744L161.023 93.6529L159.541 92.1708" stroke="black" stroke-width="0.5"/>
<path d="M145.551 82.5689L147.78 81.1759L150.249 83.5276M144.491 80.8729L147.365 79.0766L150.384 77.064M151.493 78.728L149.503 80.0551L151.628 82.0793" stroke="black" stroke-width="0.5"/>
<path d="M209.801 170.5L207.438 171.659L206.223 169.228M210.681 172.296L207.583 173.815L205.279 176.179M203.847 174.784L205.775 172.804L204.434 170.123" stroke="black" stroke-width="0.5"/>
<path d="M200.783 153.094L197.848 154.625L195.222 156.034M201.708 154.867L199.658 155.936L200.856 158.24M199.082 159.163L197.89 156.872L196.167 157.796" stroke="black" stroke-width="0.5"/>
<path d="M196.622 138.969L193.786 139.611L191.433 137.203M197.064 140.919L193.794 141.66L190.068 143.46M189.198 141.66L191.774 140.414L190.003 138.601" stroke="black" stroke-width="0.5"/>
<path d="M180.247 128.968L182.327 130.724L180.534 132.7M181.538 127.44L184.441 129.892L187.214 132.665M185.8 134.079L183.799 132.078L182.016 134.044" stroke="black" stroke-width="0.5"/>
<path d="M186.547 142.922L183.957 144.073L183.117 142.477M187.36 144.75L184.847 145.866L185.881 148.068M184.07 148.918L182.613 145.813L181.347 143.408" stroke="black" stroke-width="0.5"/>
<path d="M187.923 162.941L188.827 161.529L190.569 160.405L193.574 158.965M186.239 161.863L187.377 160.085L188.807 159.162L187.577 156.506M189.392 155.666L190.562 158.191L192.71 157.162" stroke="black" stroke-width="0.5"/>
<path d="M185.195 163.272L183.403 165.677L181.854 164.379M186.798 164.467L184.92 166.988L186.663 168.548M185.33 170.038L182.917 167.88L180.569 165.912" stroke="black" stroke-width="0.5"/>
<path d="M167.57 122.092L169.104 119.814L171.69 121.864M165.911 120.975L167.954 117.942L169.012 113.896M170.947 114.402L170.011 117.981L172.932 120.296" stroke="black" stroke-width="0.5"/>
<path d="M150.286 106.728L152.891 106.728L155.744 108.689M150.286 104.728L152.704 104.728L154.218 102.727M155.813 103.934L154.631 105.496L156.877 107.041" stroke="black" stroke-width="0.5"/>
<path d="M143.434 117.427L145.127 115.634L147.443 116.792M141.98 116.053L143.91 114.01L143.91 111.464L144.523 110.16M146.333 111.012L145.91 111.911L145.91 113.79L148.337 115.003" stroke="black" stroke-width="0.5"/>
<path d="M138.877 127.905L135.244 124.941L131.992 121.881M133.362 120.424L135.854 122.77L137.542 120.948M139.009 122.306L137.36 124.087L140.141 126.356" stroke="black" stroke-width="0.5"/>
<path d="M148.287 135.984L150.523 137.731L148.789 139.882M149.519 134.408L151.812 136.199L153.276 134.535M154.778 135.857L153.349 137.481L155.924 139.761M154.598 141.258L152.06 139.011L150.346 141.138" stroke="black" stroke-width="0.5"/>
<path d="M172.086 163.265L174.673 161.063L176.816 162.838M170.789 161.742L173.615 159.336L173.339 156.648M175.328 156.444L175.617 159.248L178.092 161.297" stroke="black" stroke-width="0.5"/>
<path d="M188.464 172.88L190.663 174.862L189.115 176.788M189.803 171.395L192.687 173.995L195.38 176.215M194.108 177.758L192.179 176.168L190.674 178.041" stroke="black" stroke-width="0.5"/>
<path d="M197.479 177.885L199.42 179.514L201.388 177.44M196.193 179.417L198.848 181.645L201.836 184.253M203.151 182.747L200.941 180.817L202.839 178.816" stroke="black" stroke-width="0.5"/>
<path d="M124.737 116.369L122.39 115.912L122.537 118.097M120.542 118.232L120.304 114.716L120.304 111.811M122.304 111.811L122.304 113.858L125.119 114.406" stroke="black" stroke-width="0.5"/>
<path d="M119.518 105.146L117.772 102.386L115.964 103.877M121.208 104.076L119.275 101.021L121.084 99.1396M119.642 97.7534L117.329 100.159L114.692 102.334" stroke="black" stroke-width="0.5"/>
<path d="M135.306 156.118L133.433 158.418L130.993 158.418M136.857 157.382L134.908 159.774L134.908 161.987M132.908 161.987L132.908 160.418L130.993 160.418" stroke="black" stroke-width="0.5"/>
<path d="M136.747 168.651L134.809 166.923L134.809 164.457M135.416 170.144L133.465 168.404L130.979 168.615M130.81 166.622L132.809 166.453L132.809 164.457" stroke="black" stroke-width="0.5"/>
<path d="M125.755 170.239L126.744 168.717L128.671 168.717M124.078 169.148L125.169 167.471L124.911 165.109M126.899 164.892L127.098 166.717L128.671 166.717" stroke="black" stroke-width="0.5"/>
<path d="M128.128 158.517L125.872 158.517L124.075 157.019M128.128 160.517L126.605 160.517L126.753 162.143M124.761 162.324L124.551 160.02L122.795 158.556" stroke="black" stroke-width="0.5"/>
<path d="M122.974 155.956L121.555 154.834L122.846 153.113L122.846 151.155M121.734 157.525L119.542 155.792L117.155 153.862M118.413 152.307L119.993 153.584L120.846 152.446L120.846 151.155" stroke="black" stroke-width="0.5"/>
<path d="M115.647 149.857L113.442 147.987L111.045 146.022M114.354 151.383L112.891 150.143L111.151 152.057M109.671 150.712L111.353 148.861L109.777 147.568" stroke="black" stroke-width="0.5"/>
<path d="M100.491 142.973L102.138 141.154L103.838 142.588M99.0086 141.63L100.658 139.809L99.0501 138.235M100.449 136.806L102.717 139.027L105.127 141.059" stroke="black" stroke-width="0.5"/>
<path d="M90.3348 129.855L88.5882 128.074L87.1027 129.495M85.7203 128.049L87.938 125.928L90.3955 123.808M91.702 125.322L90.071 126.729L91.7627 128.454" stroke="black" stroke-width="0.5"/>
<path d="M124.256 177.868L122.825 174.571L121.979 175.709L121.064 176.821M126.091 177.071L124.181 172.673L125.314 170.872M123.62 169.807L122.228 172.022L120.403 174.476L119.52 175.549" stroke="black" stroke-width="0.5"/>
<path d="M60.2686 152.214L57.3284 154.884L55.3819 157.77M61.6133 153.694L59.6209 155.504L61.5742 157.102M60.3077 158.65L58.3058 157.012L57.04 158.889" stroke="black" stroke-width="0.5"/>
<path d="M78.1231 170.982L76.8158 169.769L78.4353 167.995M76.7622 172.448L74.7497 170.579L72.4841 168.709M73.7572 167.167L75.3116 168.45L76.9583 166.646" stroke="black" stroke-width="0.5"/>
<path d="M88.148 183.752L87.5026 183.196L84.7959 182.074L81.0551 181.243L79.0013 180.709M89.4539 182.237L88.5651 181.471L86.7316 180.711L88.4075 178.686M86.8667 177.411L84.7177 180.008L82.7772 179.576L83.3208 178.531L83.3208 176.276M81.3208 176.276L81.3208 178.042L80.7696 179.102L79.5041 178.773" stroke="black" stroke-width="0.5"/>
<path d="M101.174 192.202L103.148 193.857L105.07 191.805M99.8888 193.734L101.784 195.323L99.7974 197.47M101.265 198.828L103.311 196.618L105.628 198.603M106.929 197.085L104.675 195.153L106.529 193.173" stroke="black" stroke-width="0.5"/>
<path d="M136.067 204.399L131.782 206.763L130.211 209.12M135.101 202.648L131.113 204.848L127.576 202.672M126.528 204.375L129.678 206.314L128.547 208.011" stroke="black" stroke-width="0.5"/>
<path d="M122.461 212.75L124.357 214.312L122.765 216.416M123.732 211.206L125.521 212.68L126.689 210.953M128.346 212.073L127.084 213.938L129.22 215.612M127.987 217.186L125.917 215.565L124.359 217.623" stroke="black" stroke-width="0.5"/>
<path d="M146.006 229.755L144.669 228.616L146.122 226.895M144.709 231.277L142.629 229.506L140.085 227.501M141.322 225.93L143.122 227.348L144.593 225.605" stroke="black" stroke-width="0.5"/>
<path d="M160.196 241.665L156.943 243.137L153.613 244.686M159.372 239.843L156.872 240.974L155.563 239.097M153.922 240.24L155.025 241.823L152.77 242.873" stroke="black" stroke-width="0.5"/>
<path d="M115.579 232.836L114.603 230.464L112.232 233.481L110.043 235.983M108.538 234.666L110.031 232.96L108.189 231.443M109.461 229.899L111.308 231.42L114.082 227.89L115.704 225.728M117.304 226.927L116.016 228.644L117.428 232.074" stroke="black" stroke-width="0.5"/>
<path d="M90.48 207.813L88.6425 209.823L86.1185 207.72M91.9561 209.163L89.4926 211.857L87.4158 214.396M85.8679 213.129L87.3346 211.336L84.8382 209.256" stroke="black" stroke-width="0.5"/>
<path d="M74.2265 230.223L76.0651 228.001L77.1098 226.909L79.2641 228.655M72.6857 228.947L73.8757 227.51L71.696 225.889M72.8894 224.284L75.2055 226.006L76.2708 224.892L78.1047 222.6M79.6664 223.85L78.4255 225.401L80.5237 227.102" stroke="black" stroke-width="0.5"/>
<path d="M59.8354 194.552L57.224 194.058L54.9427 192.133M59.4637 196.517L57.1133 196.073L54.5345 198.651L55.6184 201.457M53.7528 202.178L52.5227 198.994L50.1473 196.906M51.4676 195.404L53.3229 197.035L55.3032 195.054L53.6529 193.662" stroke="black" stroke-width="0.5"/>
<path d="M47.9359 192.18L46.0794 190.38L47.8436 188.483L49.5169 189.994M46.5436 193.615L44.6316 191.761L42.9183 193.198M41.6331 191.666L43.9901 189.689L47.0143 186.438L48.8442 183.998M50.4442 185.198L49.1303 186.95L50.8574 188.51" stroke="black" stroke-width="0.5"/>
<path d="M57.1406 172.78L53.8065 171.795L49.9188 169.912L51.2676 167.754M56.574 174.698L54.1768 173.99L53.5651 176.604M51.6177 176.149L52.2884 173.282L48.2511 171.327L45.2228 171.327M45.2228 169.327L47.9263 169.327L49.5716 166.694" stroke="black" stroke-width="0.5"/>
<path d="M92.4044 239.679L89.5225 237.229L86.5701 234.709M87.8687 233.187L90.0742 235.07L91.6552 233.285M93.1525 234.611L91.597 236.367L93.6997 238.155" stroke="black" stroke-width="0.5"/>
<path d="M102.486 249.441L101.319 246.309L103.329 243.874M100.612 250.139L99.2999 246.617L97.0959 243.862M98.6576 242.613L100.193 244.532L101.786 242.601" stroke="black" stroke-width="0.5"/>
<path d="M111.38 265.146L107.955 266.968L104.816 268.282M104.043 266.437L106.254 265.512L105.437 263.316M107.311 262.619L108.065 264.644L110.441 263.381" stroke="black" stroke-width="0.5"/>
<path d="M123.179 259.062L126.213 257.157L129.098 255.89M122.116 257.368L124.505 255.867L123.663 253.762M125.52 253.019L126.288 254.939L128.294 254.059" stroke="black" stroke-width="0.5"/>
<path d="M53.044 257.952L52.3278 255.325L54.4619 253.069M51.1145 258.478L50.2616 255.35L48.9077 251.645M50.7862 250.959L51.5996 253.185L53.0089 251.695" stroke="black" stroke-width="0.5"/>
<path d="M36.0806 197.7L33.1544 199.05L33.9437 201.366M32.0507 202.011L30.962 198.817L30.0187 195.479M31.9434 194.936L32.561 197.121L35.2424 195.884" stroke="black" stroke-width="0.5"/>
<path d="M29.312 172.238L26.2803 173.361L26.9775 175.936M28.6174 170.363L23.8722 172.12L25.047 176.458" stroke="black" stroke-width="0.5"/>
<path d="M32.6528 171.482L35.5627 170.789L38.6138 170.789M32.1895 169.536L34.0447 169.094L32.8747 166.449M34.7037 165.64L36.0965 168.789L38.6138 168.789" stroke="black" stroke-width="0.5"/>
<path d="M18.7656 146.146L17.1816 143.05L15.4011 143.961L16.9851 147.057" stroke="black" stroke-width="0.5"/>
<path d="M175.401 108.758L176.678 107.235L178.289 108.433M173.868 107.474L175.152 105.941L174.062 104.888M175.451 103.449L177.166 105.105L179.482 106.828" stroke="black" stroke-width="0.5"/>
<path d="M208.893 131.208L203.777 126.964M202.538 128.455L204.304 129.923L202.629 131.828M204.144 133.136L205.842 131.254L207.631 132.768" stroke="black" stroke-width="0.5"/>
</g>
<defs>
<clipPath id="clip0">
<rect width="297" height="420" fill="white" transform="translate(420) rotate(90)"/>
</clipPath>
</defs>
</svg>
