<svg width="297" height="420" viewBox="0 0 297 420" fill="none" xmlns="http://www.w3.org/2000/svg">
<path d="M206.217 189.436L207.142 191.448L204.023 192.977M208.035 188.601L209.359 191.484L212.884 198.533L214.692 202.464M212.875 203.3L211.477 200.261L208.06 201.69M207.288 199.844L210.609 198.456L208.007 193.251L204.903 194.772" stroke="black" stroke-width="0.5"/>
<path d="M186.881 198.62L188.365 201.666L191.055 207.472L188.535 210.191M188.679 197.744L189.727 199.897L193.448 198.068M194.33 199.863L190.586 201.703L192.74 206.35L196.307 204.786M197.11 206.617L193.568 208.171L194.802 210.933M192.976 211.749L191.949 209.45L190.001 211.551" stroke="black" stroke-width="0.5"/>
<path d="M68.9543 194.008L67.3663 195.856L69.811 197.837M67.4375 192.705L62.9196 197.962M64.4364 199.265L66.0622 197.374L68.5521 199.391" stroke="black" stroke-width="0.5"/>
<path d="M48.2498 221.64L46.9346 219.636L49.1629 217.002M46.5777 222.737L44.8774 220.146L43.016 217.799M44.583 216.556L45.7138 217.982L47.6361 215.71" stroke="black" stroke-width="0.5"/>
<path d="M88.6825 167.604L90.505 171.487L92.9261 170.276M86.872 168.454L88.7156 172.382L86.2501 173.614M87.1446 175.403L93.8206 172.065" stroke="black" stroke-width="0.5"/>
<path d="M72.6408 178.303L75.194 183.318L76.766 181.407M70.8585 179.211L73.8077 185.003L71.6814 187.587M73.2258 188.858L78.3104 182.678" stroke="black" stroke-width="0.5"/>
<path d="M15.59 162.724L15.0032 166.734L17.8882 169.023M17.5689 163.013L17.149 165.884L19.131 167.456" stroke="black" stroke-width="0.5"/>
<path d="M86.9593 90.0337L85.0049 86.3694L83.2402 87.3106L85.1946 90.9749" stroke="black" stroke-width="0.5"/>
<path d="M68.4689 121.612L71.7668 120.391L71.0721 118.515L67.7743 119.737" stroke="black" stroke-width="0.5"/>
<path d="M34.7312 126.268L37.3182 122.689L38.2408 125.067M33.1104 125.096L36.7829 120.016L38.9899 117.135M40.5777 118.351L38.7207 120.775L40.1053 124.343" stroke="black" stroke-width="0.5"/>
<path d="M129.723 20.0157L126.674 13.7559L121.489 17.9686M127.925 20.8917L125.979 16.897L122.75 19.5208" stroke="black" stroke-width="0.5"/>
<path d="M78.5035 137.498L76.2318 139.528L77.0637 142.709M77.1708 136.007L74.6088 138.297L70.5848 139.509M71.162 141.424L74.4048 140.447L75.1288 143.215" stroke="black" stroke-width="0.5"/>
<path d="M99.518 127.544L103.218 125.794L108.698 123.275L109.725 125.644M98.6626 125.736L101.447 124.419L99.907 121.308M101.699 120.42L103.26 123.573L112.099 119.517M112.931 121.335L110.516 122.441L111.56 124.848" stroke="black" stroke-width="0.5"/>
<path d="M123.575 151.53L124.961 154.444L127.127 153.359M121.769 152.389L123.182 155.359L121.56 156.216L118.389 157.801M119.284 159.59L121.514 158.475L122.67 161.187M124.51 160.402L123.298 157.56L124.954 156.685L128.023 155.147" stroke="black" stroke-width="0.5"/>
<path d="M141.626 143.762L142.708 145.965L140.188 147.176L139.027 144.605M143.422 142.881L144.52 145.118L146.745 144.107M147.573 145.927L144.474 147.336L140.126 149.425L136.904 150.951M136.048 149.143L138.383 148.038L137.204 145.428" stroke="black" stroke-width="0.5"/>
<path d="M157.127 136.222L158.321 138.838L156.323 139.732M158.946 135.391L160.137 137.999L162.444 136.9M163.304 138.706L160.068 140.247L157.139 141.557" stroke="black" stroke-width="0.5"/>
<path d="M179.003 125.227L180.897 129.219L182.279 132.137M180.472 132.993L179.515 130.974L176.577 132.345M175.732 130.533L178.659 129.167L177.196 126.084" stroke="black" stroke-width="0.5"/>
<path d="M186.304 145.668L187.396 148.007L184.892 149.339M188.116 144.822L189.613 148.029L191.106 151.299M189.287 152.13L188.235 149.826L185.831 151.105" stroke="black" stroke-width="0.5"/>
<path d="M171.557 155.935L168.509 157.423L165.747 158.698M172.434 157.732L170.284 158.782L171.539 161.292M169.75 162.187L168.477 159.641L166.585 160.514" stroke="black" stroke-width="0.5"/>
<path d="M153.588 164.316L150.69 165.659L147.65 166.931M154.428 166.13L152.433 167.055L153.63 169.554M151.826 170.419L150.602 167.863L148.422 168.776" stroke="black" stroke-width="0.5"/>
<path d="M125.648 168.323L126.699 170.74L124.395 171.944M127.482 167.526L128.847 170.667L131.345 173.687L134.289 172.474M135.051 174.324L132.378 175.424L133.165 177.185M131.34 178.002L130.187 175.425L127.732 172.456L125.322 173.716" stroke="black" stroke-width="0.5"/>
<path d="M123.425 174.7L121.721 175.646L123.254 178.549M122.453 172.952L119.894 174.374L117.474 175.726M118.45 177.472L119.974 176.62L121.486 179.483" stroke="black" stroke-width="0.5"/>
<path d="M125.401 182.77L126.722 185.463L128.46 184.183M123.605 183.651L125.172 186.845L124.654 187.482L123.964 186.256L121.104 184.555M120.082 186.274L122.483 187.702L123.29 189.137L121.75 190.953M123.275 192.247L125.273 189.893L127.047 187.708L129.646 185.793" stroke="black" stroke-width="0.5"/>
<path d="M100.248 192.371L98.5828 195.164L100.301 196.188L101.966 193.395" stroke="black" stroke-width="0.5"/>
<path d="M83.0182 205.764L81.7193 207.317L83.3274 208.7M81.4843 204.481L80.2143 205.999L78.3927 204.376M77.0623 205.869L78.9476 207.549L77.5106 209.353M79.0752 210.599L80.4546 208.867L82.0233 210.216" stroke="black" stroke-width="0.5"/>
<path d="M71.28 223.652L69.6809 222.216L70.9625 220.646M69.9438 225.14L68.2002 223.574L66.1076 224.909M65.032 223.223L67.6298 221.566L69.4131 219.381" stroke="black" stroke-width="0.5"/>
<path d="M51.4044 229.825L53.048 232.25L54.5489 234.595M53.0601 228.703L54.1573 230.322L56.5505 228.745M57.651 230.415L55.2574 231.992L56.2334 233.517" stroke="black" stroke-width="0.5"/>
<path d="M100.816 223.179L98.9048 221.484L100.914 219.118M99.4887 224.675L96.8639 222.347L93.8562 219.932M95.1083 218.373L97.3766 220.194L99.3901 217.823" stroke="black" stroke-width="0.5"/>
<path d="M81.1978 234.735L82.8147 236.176L81.0996 238.203M82.5282 233.242L84.8505 235.311L87.0438 237.04M85.8055 238.611L84.3472 237.461L82.6264 239.494" stroke="black" stroke-width="0.5"/>
<path d="M63.7544 248.992L65.4879 251.592L67.1884 254.326M65.4185 247.883L66.6419 249.718L69.2148 248.24M70.2108 249.975L67.7249 251.402L68.8867 253.27" stroke="black" stroke-width="0.5"/>
<path d="M137.052 185.159L135.376 182.021L133.842 178.668M135.288 186.101L134.036 183.757L130.93 185.141M130.116 183.314L133.15 181.962L132.023 179.5" stroke="black" stroke-width="0.5"/>
<path d="M158.247 184.066L159.726 187.077L160.731 189.649L158.336 190.989M160.042 183.184L161.124 185.386L163.945 184.2M164.72 186.044L161.929 187.218L162.888 189.674L164.448 192.548L166.811 191.484M167.632 193.308L165.358 194.332L166.25 196.188M164.448 197.055L163.121 194.296L161.584 191.464L159.312 192.734" stroke="black" stroke-width="0.5"/>
<path d="M176.019 175.584L177.192 177.98L174.966 179.043M177.816 174.705L179.434 178.012L180.527 180.27M178.727 181.142L178.067 179.779L175.827 180.848" stroke="black" stroke-width="0.5"/>
<path d="M181.719 182.608L184.429 188.36M182.62 189.212L181.515 186.864L179.081 187.942M178.271 186.113L180.662 185.054L179.911 183.461" stroke="black" stroke-width="0.5"/>
<path d="M141.256 197.435L142.485 199.815L139.889 201.652M143.033 196.518L144.193 198.765L146.398 197.572M147.35 199.331L145.134 200.53L146.327 202.699M144.574 203.662L143.436 201.593L141.044 203.285" stroke="black" stroke-width="0.5"/>
<path d="M105.861 227.518L108.392 229.725L110.688 232.213L111.147 232.606L112.094 233.699L114.278 231.136M115.8 232.433L112.88 235.86L110.47 239.031M108.878 237.821L110.813 235.274L109.733 234.028L109.298 233.655L107.715 231.94L106.277 233.591M104.769 232.277L106.283 230.54L104.546 229.025" stroke="black" stroke-width="0.5"/>
<path d="M102.448 245.694L100.295 247.846L96.4811 244.502L98.2795 242.439M103.862 247.108L101.088 249.882L98.8859 252.652M97.3203 251.408L98.9645 249.339L94.4402 245.373L91.2217 242.941M92.4273 241.345L94.931 243.237L96.772 241.125" stroke="black" stroke-width="0.5"/>
<path d="M94.5637 254.674L92.8009 257L90.7566 259.045M96.1578 255.881L94.9629 257.459L96.9678 258.949M95.7744 260.554L93.6529 258.977L92.1708 260.459" stroke="black" stroke-width="0.5"/>
<path d="M82.5691 274.449L81.176 272.22L83.5277 269.751M80.8731 275.509L79.0767 272.635L77.0641 269.616M78.7282 268.507L80.0552 270.497L82.0794 268.372" stroke="black" stroke-width="0.5"/>
<path d="M170.5 210.199L171.659 212.562L169.228 213.777M172.296 209.319L173.815 212.417L176.179 214.721M174.784 216.153L172.805 214.225L170.123 215.566" stroke="black" stroke-width="0.5"/>
<path d="M153.094 219.217L154.625 222.152L156.034 224.778M154.867 218.292L155.936 220.342L158.24 219.144M159.163 220.918L156.872 222.11L157.796 223.833" stroke="black" stroke-width="0.5"/>
<path d="M138.969 223.378L139.611 226.214L137.203 228.567M140.919 222.936L141.66 226.206L143.46 229.932M141.66 230.802L140.414 228.226L138.601 229.997" stroke="black" stroke-width="0.5"/>
<path d="M128.968 239.753L130.724 237.673L132.7 239.466M127.44 238.462L129.892 235.559L132.665 232.786M134.079 234.2L132.078 236.201L134.044 237.984" stroke="black" stroke-width="0.5"/>
<path d="M142.922 233.453L144.073 236.043L142.477 236.883M144.75 232.64L145.866 235.153L148.068 234.119M148.918 235.93L145.813 237.387L143.408 238.653" stroke="black" stroke-width="0.5"/>
<path d="M162.941 232.077L161.529 231.173L160.406 229.431L158.965 226.426M161.863 233.761L160.085 232.623L159.162 231.193L156.506 232.423M155.666 230.608L158.191 229.438L157.162 227.29" stroke="black" stroke-width="0.5"/>
<path d="M163.272 234.805L165.677 236.597L164.379 238.146M164.467 233.202L166.988 235.08L168.548 233.337M170.038 234.67L167.88 237.083L165.912 239.431" stroke="black" stroke-width="0.5"/>
<path d="M122.092 252.43L119.814 250.896L121.864 248.31M120.975 254.089L117.942 252.046L113.896 250.988M114.402 249.053L117.981 249.989L120.296 247.068" stroke="black" stroke-width="0.5"/>
<path d="M106.728 269.714V267.109L108.689 264.256M104.728 269.714V267.296L102.727 265.782M103.934 264.187L105.497 265.369L107.041 263.123" stroke="black" stroke-width="0.5"/>
<path d="M117.427 276.566L115.635 274.873L116.792 272.557M116.053 278.02L114.01 276.09H111.464L110.16 275.477M111.012 273.667L111.911 274.09H113.79L115.003 271.663" stroke="black" stroke-width="0.5"/>
<path d="M127.905 281.123L124.941 284.756L121.881 288.008M120.424 286.638L122.77 284.146L120.948 282.458M122.306 280.991L124.087 282.64L126.356 279.859" stroke="black" stroke-width="0.5"/>
<path d="M135.984 271.713L137.731 269.477L139.882 271.211M134.408 270.481L136.199 268.188L134.535 266.724M135.857 265.222L137.481 266.651L139.761 264.076M141.258 265.402L139.011 267.94L141.138 269.654" stroke="black" stroke-width="0.5"/>
<path d="M163.265 247.914L161.063 245.327L162.838 243.184M161.742 249.211L159.336 246.385L156.648 246.661M156.444 244.672L159.248 244.383L161.297 241.908" stroke="black" stroke-width="0.5"/>
<path d="M172.88 231.536L174.862 229.337L176.788 230.885M171.395 230.197L173.995 227.313L176.215 224.62M177.758 225.892L176.168 227.821L178.041 229.326" stroke="black" stroke-width="0.5"/>
<path d="M177.885 222.521L179.514 220.58L177.44 218.612M179.417 223.807L181.645 221.152L184.253 218.164M182.747 216.849L180.817 219.059L178.816 217.161" stroke="black" stroke-width="0.5"/>
<path d="M116.369 295.263L115.912 297.61L118.097 297.463M118.232 299.458L114.716 299.696H111.811M111.811 297.696H113.858L114.406 294.881" stroke="black" stroke-width="0.5"/>
<path d="M105.146 300.482L102.387 302.228L103.877 304.036M104.077 298.792L101.021 300.725L99.1397 298.916M97.7535 300.358L100.159 302.671L102.334 305.308" stroke="black" stroke-width="0.5"/>
<path d="M156.118 284.694L158.418 286.567V289.007M157.382 283.143L159.774 285.092H161.987M161.987 287.092H160.418V289.007" stroke="black" stroke-width="0.5"/>
<path d="M168.651 283.253L166.923 285.191H164.457M170.144 284.584L168.404 286.535L168.615 289.021M166.622 289.19L166.453 287.191H164.457" stroke="black" stroke-width="0.5"/>
<path d="M170.239 294.245L168.717 293.256V291.329M169.148 295.922L167.471 294.831L165.109 295.089M164.892 293.101L166.717 292.902V291.329" stroke="black" stroke-width="0.5"/>
<path d="M158.517 291.872V294.128L157.019 295.925M160.517 291.872V293.395L162.143 293.247M162.324 295.239L160.02 295.449L158.556 297.205" stroke="black" stroke-width="0.5"/>
<path d="M155.956 297.026L154.834 298.445L153.113 297.154H151.155M157.525 298.266L155.792 300.458L153.862 302.845M152.307 301.587L153.584 300.007L152.446 299.154H151.155" stroke="black" stroke-width="0.5"/>
<path d="M149.857 304.353L147.987 306.558L146.022 308.955M151.383 305.646L150.143 307.109L152.058 308.849M150.712 310.329L148.862 308.647L147.569 310.223" stroke="black" stroke-width="0.5"/>
<path d="M142.973 319.509L141.154 317.862L142.588 316.162M141.63 320.991L139.809 319.342L138.235 320.95M136.806 319.551L139.027 317.283L141.059 314.873" stroke="black" stroke-width="0.5"/>
<path d="M129.855 329.665L128.074 331.412L129.495 332.897M128.049 334.28L125.928 332.062L123.808 329.605M125.322 328.298L126.729 329.929L128.454 328.237" stroke="black" stroke-width="0.5"/>
<path d="M177.868 295.744L174.571 297.175L175.709 298.021L176.821 298.936M177.071 293.909L172.673 295.819L170.872 294.686M169.807 296.38L172.022 297.772L174.476 299.597L175.549 300.48" stroke="black" stroke-width="0.5"/>
<path d="M152.214 359.731L154.884 362.672L157.771 364.618M153.695 358.387L155.504 360.379L157.102 358.426M158.65 359.692L157.012 361.694L158.889 362.96" stroke="black" stroke-width="0.5"/>
<path d="M170.982 341.877L169.769 343.184L167.995 341.565M172.448 343.238L170.579 345.25L168.709 347.516M167.167 346.243L168.45 344.688L166.646 343.042" stroke="black" stroke-width="0.5"/>
<path d="M183.752 331.852L183.196 332.497L182.074 335.204L181.243 338.945L180.709 340.999M182.237 330.546L181.471 331.435L180.711 333.268L178.686 331.592M177.411 333.133L180.008 335.282L179.576 337.223L178.531 336.679H176.276M176.276 338.679H178.042L179.102 339.23L178.773 340.496" stroke="black" stroke-width="0.5"/>
<path d="M192.202 318.826L193.857 316.852L191.806 314.93M193.734 320.111L195.323 318.216L197.47 320.203M198.828 318.735L196.618 316.689L198.604 314.372M197.085 313.071L195.153 315.325L193.173 313.471" stroke="black" stroke-width="0.5"/>
<path d="M204.399 283.933L206.764 288.218L209.12 289.789M202.648 284.899L204.849 288.887L202.672 292.424M204.376 293.472L206.314 290.322L208.011 291.453" stroke="black" stroke-width="0.5"/>
<path d="M212.75 297.539L214.312 295.643L216.416 297.235M211.206 296.268L212.68 294.479L210.953 293.311M212.073 291.654L213.938 292.916L215.612 290.78M217.186 292.013L215.565 294.083L217.623 295.641" stroke="black" stroke-width="0.5"/>
<path d="M229.755 273.994L228.616 275.331L226.895 273.878M231.277 275.291L229.506 277.371L227.501 279.915M225.93 278.678L227.348 276.878L225.605 275.407" stroke="black" stroke-width="0.5"/>
<path d="M241.665 259.804L243.137 263.057L244.686 266.387M239.843 260.628L240.974 263.128L239.097 264.437M240.24 266.078L241.823 264.975L242.873 267.23" stroke="black" stroke-width="0.5"/>
<path d="M232.836 304.421L230.464 305.397L233.481 307.768L235.983 309.957M234.666 311.462L232.96 309.969L231.443 311.811M229.899 310.539L231.42 308.692L227.89 305.918L225.728 304.296M226.927 302.696L228.644 303.984L232.074 302.572" stroke="black" stroke-width="0.5"/>
<path d="M207.813 329.52L209.823 331.357L207.72 333.881M209.163 328.044L211.857 330.507L214.396 332.584M213.129 334.132L211.336 332.665L209.256 335.162" stroke="black" stroke-width="0.5"/>
<path d="M230.223 345.773L228.001 343.935L226.909 342.89L228.655 340.736M228.948 347.314L227.51 346.124L225.889 348.304M224.284 347.111L226.006 344.794L224.893 343.729L222.6 341.895M223.85 340.334L225.401 341.575L227.102 339.476" stroke="black" stroke-width="0.5"/>
<path d="M194.552 360.165L194.058 362.776L192.133 365.057M196.517 360.536L196.073 362.887L198.652 365.466L201.457 364.382M202.178 366.247L198.994 367.477L196.907 369.853M195.404 368.532L197.035 366.677L195.054 364.697L193.662 366.347" stroke="black" stroke-width="0.5"/>
<path d="M192.18 372.064L190.38 373.921L188.483 372.156L189.994 370.483M193.616 373.456L191.762 375.368L193.199 377.082M191.666 378.367L189.689 376.01L186.438 372.986L183.998 371.156M185.198 369.556L186.95 370.87L188.51 369.143" stroke="black" stroke-width="0.5"/>
<path d="M172.78 362.859L171.795 366.193L169.912 370.081L167.754 368.732M174.698 363.426L173.99 365.823L176.604 366.435M176.149 368.382L173.282 367.712L171.327 371.749V374.777M169.327 374.777V372.074L166.694 370.428" stroke="black" stroke-width="0.5"/>
<path d="M239.679 327.596L237.229 330.477L234.709 333.43M233.188 332.131L235.07 329.926L233.285 328.345M234.611 326.848L236.367 328.403L238.155 326.3" stroke="black" stroke-width="0.5"/>
<path d="M249.441 317.514L246.309 318.681L243.874 316.671M250.139 319.388L246.617 320.7L243.862 322.904M242.613 321.342L244.532 319.807L242.601 318.214" stroke="black" stroke-width="0.5"/>
<path d="M265.146 308.62L266.968 312.045L268.282 315.184M266.437 315.957L265.512 313.746L263.316 314.563M262.619 312.689L264.644 311.935L263.381 309.559" stroke="black" stroke-width="0.5"/>
<path d="M259.062 296.821L257.157 293.787L255.89 290.902M257.368 297.884L255.867 295.495L253.762 296.337M253.019 294.48L254.939 293.712L254.059 291.706" stroke="black" stroke-width="0.5"/>
<path d="M257.952 366.956L255.325 367.672L253.069 365.538M258.478 368.886L255.35 369.738L251.645 371.092M250.959 369.214L253.185 368.4L251.695 366.991" stroke="black" stroke-width="0.5"/>
<path d="M197.7 383.919L199.05 386.846L201.366 386.056M202.011 387.949L198.817 389.038L195.479 389.981M194.936 388.057L197.121 387.439L195.884 384.758" stroke="black" stroke-width="0.5"/>
<path d="M172.238 390.688L173.361 393.72L175.936 393.022M170.363 391.383L172.12 396.128L176.459 394.953" stroke="black" stroke-width="0.5"/>
<path d="M171.482 387.347L170.789 384.437V381.386M169.536 387.81L169.094 385.955L166.449 387.125M165.64 385.296L168.789 383.904V381.386" stroke="black" stroke-width="0.5"/>
<path d="M146.146 401.234L143.05 402.818L143.961 404.599L147.057 403.015" stroke="black" stroke-width="0.5"/>
<path d="M108.758 244.599L107.235 243.322L108.433 241.711M107.474 246.132L105.941 244.848L104.888 245.938M103.449 244.549L105.105 242.834L106.828 240.518" stroke="black" stroke-width="0.5"/>
<path d="M131.208 211.107L126.964 216.223M128.455 217.462L129.923 215.696L131.828 217.371M133.136 215.856L131.254 214.158L132.768 212.369" stroke="black" stroke-width="0.5"/>
</svg>
